<svg width="1024" height="1024" viewBox="0 0 1024 1024" fill="none" xmlns="http://www.w3.org/2000/svg">
<path d="M513.6 954.8C269 954.8 70 755.8 70 511.1C70 266.4 269 67.5 513.6 67.5C758.2 67.5 957.3 266.5 957.3 511.2C957.3 755.9 758.2 954.8 513.6 954.8ZM513.6 130.2C303.6 130.2 132.7 301.1 132.7 511.1C132.7 721.1 303.6 892 513.6 892C723.6 892 894.5 721.1 894.5 511.1C894.5 301.1 723.6 130.2 513.6 130.2Z" fill="#E90000"/>
<path d="M670.72 702.72C666.497 702.723 662.316 701.891 658.417 700.271C654.517 698.651 650.977 696.275 648 693.28L330.72 376C324.716 369.995 321.342 361.852 321.342 353.36C321.342 344.868 324.716 336.724 330.72 330.72C336.725 324.715 344.868 321.342 353.36 321.342C361.852 321.342 369.996 324.715 376 330.72L693.28 648C697.783 652.466 700.857 658.17 702.113 664.387C703.368 670.604 702.747 677.053 700.33 682.917C697.913 688.781 693.807 693.794 688.535 697.319C683.263 700.845 677.062 702.725 670.72 702.72Z" fill="#E90000"/>
<path d="M353.28 702.72C346.938 702.725 340.737 700.845 335.465 697.319C330.193 693.794 326.088 688.781 323.67 682.917C321.253 677.053 320.632 670.604 321.887 664.387C323.143 658.17 326.217 652.466 330.72 648L648 330.72C654.004 324.715 662.148 321.342 670.64 321.342C679.132 321.342 687.276 324.715 693.28 330.72C699.284 336.724 702.658 344.868 702.658 353.36C702.658 361.852 699.284 369.995 693.28 376L376 693.28C373.023 696.275 369.483 698.651 365.583 700.271C361.684 701.891 357.503 702.723 353.28 702.72Z" fill="#E90000"/>
</svg>
