<svg width="1024" height="1024" viewBox="0 0 1024 1024" fill="none" xmlns="http://www.w3.org/2000/svg">
<path d="M513.6 954.8C269 954.8 70 755.8 70 511.1C70 266.4 269 67.5 513.6 67.5C758.2 67.5 957.3 266.5 957.3 511.2C957.3 755.9 758.2 954.8 513.6 954.8ZM513.6 130.2C303.6 130.2 132.7 301.1 132.7 511.1C132.7 721.1 303.6 892 513.6 892C723.6 892 894.5 721.1 894.5 511.1C894.5 301.1 723.6 130.2 513.6 130.2Z" fill="#00E933"/>
<path d="M272.73 506.1L315.733 465.272L513.126 673.187L470.122 714.015L272.73 506.1Z" fill="#00E933"/>
<path d="M746.457 372.476L787.125 415.635L470.605 713.889L429.937 670.73L746.457 372.476Z" fill="#00E933"/>
</svg>
